Coordinates
version=1
nRows=21
nColumns=19
inDegrees=yes

Units are S.I. units (second, meters, Newtons, ...)
If the header above contains a line with 'inDegrees', this indicates whether rotational values are in degrees (yes) or radians (no).

endheader
time	pelvis_obliquity	pelvis_rotation	pelvis_tilt	pelvis_to_ground_tx	pelvis_to_ground_ty	pelvis_to_ground_tz	left_hip_abduction	left_hip_rotation	left_hip_flexion	left_knee_flexion	left_ankle_flexion	left_subtalar_angle	right_hip_abduction	right_hip_rotation	right_hip_flexion	right_knee_flexion	right_ankle_flexion	right_subtalar_angle
      4.01000000	     81.33147766	      3.78772636	     -9.99830969	      0.00912618	     -0.63306237	      0.59107170	      8.63567237	     -8.25495424	     47.65070226	    -28.29032749	    -17.47456657	    -16.79264607	     10.24913641	     19.49765085	      1.91635576	      2.34709567	     -7.85162071	    -11.48011735
      4.02000000	     81.05795862	      3.35935330	     -9.80246116	      0.02043178	     -0.63277407	      0.58926467	      9.55549531	     -8.90801257	     46.68287899	    -26.53231218	    -17.73043943	    -17.15723985	     10.72441497	     19.59653755	      1.04604552	      1.71081403	     -8.17212316	    -11.24736342
      4.03000000	     80.90689100	      3.00175946	     -9.67353784	      0.03195504	     -0.63243223	      0.58749098	     10.26681643	     -9.59259738	     45.65569371	    -25.04822250	    -17.87036473	    -17.52897264	     11.03129836	     19.64372025	      0.39646864	      0.83733510	     -8.59010872	    -10.98381678
      4.04000000	     80.91132792	      2.72513346	     -9.62396278	      0.04363301	     -0.63201667	      0.58580158	     10.71208129	    -10.27295465	     44.62028817	    -23.86603423	    -17.86086948	    -17.83916970	     11.13121528	     19.63745810	      0.00395342	     -0.28531913	     -9.10359307	    -10.70606258
      4.05000000	     81.08449674	      2.55226437	     -9.64512739	      0.05539097	     -0.63153040	      0.58424218	     10.86669281	    -10.91627392	     43.60951208	    -22.99064595	    -17.70340646	    -18.05121615	     11.01971092	     19.56591949	     -0.11953652	     -1.66780041	     -9.72357500	    -10.42223649
      4.06000000	     81.43914822	      2.47092485	     -9.73918853	      0.06715422	     -0.63094727	      0.58285870	     10.70326574	    -11.45520823	     42.64958440	    -22.40266911	    -17.38216625	    -18.17642791	     10.68246228	     19.44362903	      0.04225522	     -3.31621889	    -10.53776735	    -10.03638988
      4.07000000	     81.97270340	      2.56895995	     -9.88611182	      0.07882592	     -0.63028494	      0.58169350	     10.33230932	    -12.11350992	     41.72698443	    -22.00189069	    -17.01116606	    -18.10245448	     10.14481108	     19.16307694	      0.48931174	     -5.22980857	    -11.30309696	     -9.83045295
      4.08000000	     82.69049605	      2.75597007	    -10.11956663	      0.09036015	     -0.62951226	      0.58079171	      9.67247574	    -12.61653066	     40.87841164	    -21.74642811	    -16.35775760	    -17.76483319	      9.38321098	     18.83590696	      1.23849684	     -7.38877024	    -12.41312804	     -9.26863111
      4.09000000	     83.57858981	      3.12356913	    -10.34805931	      0.10166566	     -0.62865185	      0.58015668	      8.84707655	    -13.24871918	     40.00100400	    -21.52291704	    -15.94671575	    -17.46897455	      8.43217269	     18.22232936	      2.23708450	     -9.83999248	    -13.22477098	     -9.20987120
      4.10000000	     84.61348647	      3.56637903	    -10.72170737	      0.11269427	     -0.62766319	      0.57985163	      7.85412537	    -13.77360786	     39.23134210	    -21.26037342	    -15.19816107	    -16.67848249	      7.28732048	     17.59472766	      3.56921936	    -12.47380612	    -14.43464882	     -8.54395121
      4.11000000	     85.74536071	      4.17931253	    -10.97427259	      0.12340710	     -0.62660310	      0.57980744	      6.76709695	    -14.42562663	     38.29991197	    -20.91843153	    -14.80094140	    -16.20356916	      6.06288850	     16.60798645	      4.98538098	    -15.33797137	    -15.20183881	     -8.53775722
      4.12000000	     86.95941805	      4.86107766	    -11.32007500	      0.13376451	     -0.62542298	      0.58009383	      5.62326656	    -15.07685290	     37.39010592	    -20.41235232	    -14.38149751	    -15.59365633	      4.72184379	     15.54359990	      6.64057452	    -18.31427918	    -16.02308363	     -8.35919092
      4.13000000	     88.20028008	      5.56716222	    -11.78565647	      0.14375264	     -0.62412727	      0.58073490	      4.48098019	    -15.69705478	     36.51008132	    -19.69018166	    -13.77901991	    -14.38641018	      3.32658932	     14.52017579	      8.51383116	    -21.30783314	    -16.93095659	     -7.67960781
      4.14000000	     89.39282318	      6.36376089	    -12.08891306	      0.15339547	     -0.62277829	      0.58160588	      3.35354135	    -16.36356357	     35.40676116	    -18.83013243	    -13.42299762	    -13.61287577	      2.00574336	     13.25892071	     10.32396181	    -24.34283937	    -17.38916778	     -7.59271661
      4.15000000	     90.50069890	      7.18019884	    -12.38783417	      0.16267238	     -0.62134930	      0.58274162	      2.30703512	    -17.03264726	     34.23489624	    -17.80858331	    -13.18318350	    -12.95325447	      0.75245223	     11.95968456	     12.20277704	    -27.32180376	    -17.69116821	     -7.56299885
      4.16000000	     91.46608440	      8.02036279	    -12.60626974	      0.17161206	     -0.61988047	      0.58408393	      1.35871560	    -17.66647683	     32.95206491	    -16.69174370	    -13.03389892	    -12.50711637	     -0.36225775	     10.58785294	     14.06133238	    -30.20137369	    -17.82522103	     -7.69055910
      4.17000000	     92.29887363	      8.82578056	    -12.83923570	      0.18023185	     -0.61835974	      0.58565162	      0.53649579	    -18.30077637	     31.62993632	    -15.43313363	    -12.95455082	    -12.08471956	     -1.37211478	      9.28341887	     15.98409486	    -32.92194604	    -17.76040892	     -7.84333894
      4.18000000	     92.95248467	      9.60121218	    -13.03120110	      0.18856085	     -0.61682721	      0.58737621	     -0.13796730	    -18.90659158	     30.26022154	    -14.11367860	    -12.96055284	    -11.72853777	     -2.22121716	      8.01321847	     17.91735232	    -35.45809825	    -17.44802052	     -8.06213863
      4.19000000	     93.42207642	     10.34449601	    -13.15734302	      0.19661978	     -0.61530671	      0.58919821	     -0.67026361	    -19.47181087	     28.85075257	    -12.79249664	    -13.02749930	    -11.49102714	     -2.90018512	      6.76575209	     19.84072705	    -37.79618027	    -16.94482901	     -8.37180456
      4.20000000	     93.72471241	     11.05258371	    -13.24185830	      0.20445908	     -0.61381674	      0.59108164	     -1.06597029	    -19.97786858	     27.43354701	    -11.47048894	    -13.19996964	    -11.37555582	     -3.42682211	      5.52334998	     21.76782500	    -39.90967005	    -16.15437406	     -8.78097803
      4.21000000	     93.86645695	     11.70046142	    -13.23330504	      0.21205988	     -0.61236194	      0.59290486	     -1.38626413	    -20.28206591	     26.04263570	    -10.31735956	    -13.66143787	    -11.57226534	     -3.80491409	      4.30145945	     23.67781265	    -41.85282474	    -14.78011943	     -9.28051489
